<svg width="139" height="88" fill="none" xmlns="http://www.w3.org/2000/svg"><path d="M80 7a12 12 0 0 0-12 12c0 2.838.603 4.695 2.25 6.75L80 37l9.75-11.25C91.397 23.695 92 21.838 92 19A12 12 0 0 0 80 7Z" fill="#453CC9" stroke="#453CC9" stroke-width="2" stroke-linecap="round" stroke-linejoin="round"/><path d="M80 18.306c.736 0 1.354.434 1.528 1.02.22.736.19 1.541 1.155 1.96.856.253 1.18.572 1.18 1.425 0 .681-.67 1.406-1.535 1.496-.966.126-1.719-.039-2.328-.34-.61.301-1.363.467-2.328.34-.865-.09-1.535-.817-1.535-1.496 0-.835.346-1.189 1.2-1.431 1.052-.467.911-1.286 1.146-1.99.096-.284.296-.534.57-.712a1.74 1.74 0 0 1 .947-.272Zm4.819-.507c-.261-.197-1.325.572-1.66.952-.203.203-.33.482-.33.79 0 .618.51 1.12 1.136 1.12.477 0 .885-.288 1.054-.698.328-.738.346-1.752-.2-2.164Zm-9.638 0c-.545.412-.528 1.426-.2 2.164.17.41.577.698 1.053.698.628 0 1.136-.502 1.136-1.12a1.11 1.11 0 0 0-.33-.79c-.334-.38-1.398-1.15-1.66-.952Zm6.22-4.042c2.648.39 2.462 4.269.342 3.956a1.333 1.333 0 0 1-1.135-1.153c-.07-.589-.228-2.953.792-2.803Zm-2.801 0c1.02-.15.862 2.214.792 2.803a1.332 1.332 0 0 1-1.134 1.153c-2.12.313-2.306-3.565.342-3.956Z" fill="#fff"/><path d="M5.292 36c-.48 0-.888-.156-1.224-.468a1.734 1.734 0 0 1-.468-1.224V9.576c0-.48.156-.876.468-1.188a1.666 1.666 0 0 1 1.224-.504h7.2c1.8 0 3.384.396 4.752 1.188a8.338 8.338 0 0 1 3.24 3.276c.768 1.368 1.152 2.964 1.152 4.788 0 1.752-.384 3.312-1.152 4.68a8.16 8.16 0 0 1-3.24 3.204c-1.368.768-2.952 1.152-4.752 1.152H6.984v8.136c0 .48-.156.888-.468 1.224-.312.312-.72.468-1.224.468Zm1.692-12.996h5.508c1.152 0 2.172-.252 3.06-.756a5.454 5.454 0 0 0 2.088-2.088c.504-.888.756-1.896.756-3.024 0-1.2-.252-2.256-.756-3.168a5.387 5.387 0 0 0-2.088-2.124c-.888-.528-1.908-.792-3.06-.792H6.984v11.952ZM23.621 36c-.48 0-.888-.156-1.224-.468a1.734 1.734 0 0 1-.468-1.224V9.576c0-.504.156-.912.468-1.224a1.734 1.734 0 0 1 1.224-.468h16.524c.48 0 .876.156 1.188.468.312.288.468.672.468 1.152 0 .432-.156.804-.468 1.116-.312.288-.708.432-1.188.432H25.313v9.216h10.692c.504 0 .9.156 1.188.468.312.288.468.66.468 1.116 0 .456-.156.84-.468 1.152-.288.288-.684.432-1.188.432H25.313v9.396h14.832c.48 0 .876.156 1.188.468.312.288.468.648.468 1.08 0 .48-.156.876-.468 1.188-.312.288-.708.432-1.188.432H23.621Zm27.694 0c-.456 0-.852-.156-1.188-.468a1.666 1.666 0 0 1-.504-1.224V7.884h3.384v26.424c0 .48-.156.888-.468 1.224-.312.312-.72.468-1.224.468Zm-9.756-25.02c-.456 0-.828-.144-1.116-.432-.288-.288-.432-.66-.432-1.116 0-.456.144-.828.432-1.116.288-.288.66-.432 1.116-.432H61.07c.48 0 .864.144 1.152.432.288.288.432.66.432 1.116 0 .456-.144.828-.432 1.116-.288.288-.672.432-1.152.432H41.559ZM3.024 76c-.456 0-.852-.156-1.188-.468a1.666 1.666 0 0 1-.504-1.224V49.576c0-.504.156-.912.468-1.224a1.734 1.734 0 0 1 1.224-.468h16.524c.504 0 .9.156 1.188.468.312.288.468.672.468 1.152 0 .432-.156.804-.468 1.116-.288.288-.684.432-1.188.432H4.716v9.216h10.692c.504 0 .912.156 1.224.468.312.288.468.66.468 1.116 0 .456-.156.84-.468 1.152-.312.288-.72.432-1.224.432H4.716v10.872c0 .48-.168.888-.504 1.224-.312.312-.708.468-1.188.468Zm20.808 0c-.48 0-.888-.156-1.224-.468a1.734 1.734 0 0 1-.468-1.224V49.576c0-.504.156-.912.468-1.224a1.734 1.734 0 0 1 1.224-.468c.504 0 .912.156 1.224.468.312.312.468.72.468 1.224v24.732c0 .48-.156.888-.468 1.224-.312.312-.72.468-1.224.468Zm6.586 0c-.48 0-.876-.156-1.188-.468a1.734 1.734 0 0 1-.468-1.224V49.576c0-.504.156-.912.468-1.224.312-.312.708-.468 1.188-.468.528 0 .972.204 1.332.612L48.022 70.06V49.576c0-.504.156-.912.468-1.224a1.734 1.734 0 0 1 1.224-.468c.48 0 .876.156 1.188.468.312.312.468.72.468 1.224v24.732c0 .48-.156.888-.468 1.224-.312.312-.708.468-1.188.468-.24 0-.48-.048-.72-.144a1.31 1.31 0 0 1-.576-.432L32.11 53.86v20.448c0 .48-.156.888-.468 1.224-.312.312-.72.468-1.224.468Zm25.889 0c-.48 0-.889-.156-1.224-.468a1.734 1.734 0 0 1-.468-1.224V49.576c0-.504.155-.912.468-1.224a1.734 1.734 0 0 1 1.224-.468h6.515c2.064 0 3.936.348 5.617 1.044a12.602 12.602 0 0 1 4.428 2.916c1.248 1.248 2.207 2.724 2.88 4.428.695 1.704 1.043 3.588 1.043 5.652s-.348 3.96-1.044 5.688a13.232 13.232 0 0 1-2.88 4.464c-1.248 1.248-2.724 2.22-4.427 2.916-1.68.672-3.552 1.008-5.616 1.008h-6.517Zm1.691-3.024h4.825c2.087 0 3.923-.468 5.508-1.404a10.24 10.24 0 0 0 3.78-3.924c.935-1.68 1.403-3.588 1.403-5.724 0-2.16-.468-4.068-1.403-5.724-.913-1.656-2.172-2.952-3.78-3.888-1.585-.936-3.42-1.404-5.509-1.404h-4.824v22.068ZM80.367 76c-.48 0-.888-.156-1.224-.468a1.734 1.734 0 0 1-.468-1.224V49.576c0-.504.156-.912.468-1.224a1.734 1.734 0 0 1 1.224-.468c.504 0 .912.156 1.224.468.312.312.468.72.468 1.224v24.732c0 .48-.156.888-.468 1.224-.312.312-.72.468-1.224.468Zm6.586 0c-.48 0-.876-.156-1.188-.468a1.734 1.734 0 0 1-.468-1.224V49.576c0-.504.156-.912.468-1.224.312-.312.708-.468 1.188-.468.528 0 .972.204 1.332.612l16.272 21.564V49.576c0-.504.156-.912.468-1.224a1.734 1.734 0 0 1 1.224-.468c.48 0 .876.156 1.188.468.312.312.468.72.468 1.224v24.732c0 .48-.156.888-.468 1.224-.312.312-.708.468-1.188.468-.24 0-.48-.048-.72-.144a1.31 1.31 0 0 1-.576-.432L88.644 53.86v20.448c0 .48-.156.888-.468 1.224-.312.312-.72.468-1.224.468Zm36.797.36c-1.944 0-3.768-.36-5.472-1.08a13.918 13.918 0 0 1-4.428-3.096 14.857 14.857 0 0 1-2.952-4.608c-.72-1.752-1.08-3.636-1.08-5.652 0-1.992.348-3.852 1.044-5.58a14.53 14.53 0 0 1 2.988-4.608 13.918 13.918 0 0 1 4.428-3.096c1.68-.744 3.504-1.116 5.472-1.116 1.8 0 3.384.252 4.752.756 1.368.48 2.724 1.272 4.068 2.376.192.144.324.312.396.504a.849.849 0 0 1 .108.54c0 .168-.036.336-.108.504-.024.36-.18.66-.468.9-.264.216-.588.324-.972.324s-.744-.132-1.08-.396c-.912-.792-1.872-1.392-2.88-1.8-1.008-.408-2.28-.612-3.816-.612-1.464 0-2.844.3-4.14.9-1.272.6-2.4 1.416-3.384 2.448a11.275 11.275 0 0 0-2.304 3.6 11.53 11.53 0 0 0-.828 4.356c0 1.584.276 3.06.828 4.428a11.828 11.828 0 0 0 2.304 3.6 10.79 10.79 0 0 0 3.384 2.412c1.296.576 2.676.864 4.14.864 1.272 0 2.472-.204 3.6-.612a12.864 12.864 0 0 0 3.204-1.8c.384-.288.768-.408 1.152-.36.384.024.708.18.972.468.264.264.396.636.396 1.116 0 .216-.036.432-.108.648-.048.192-.18.372-.396.54-1.248 1.104-2.628 1.908-4.14 2.412a15.15 15.15 0 0 1-4.68.72Zm9.324-4.32-3.24-.684v-6.732h-5.22c-.48 0-.888-.144-1.224-.432a1.409 1.409 0 0 1-.468-1.08c0-.432.156-.78.468-1.044.336-.288.744-.432 1.224-.432h6.804c.504 0 .9.156 1.188.468.312.312.468.708.468 1.188v8.748Z" fill="#102754"/></svg>