<svg width="37" height="37" fill="none" xmlns="http://www.w3.org/2000/svg"><path d="M18.205 3.75a12 12 0 0 0-12 12c0 2.839.603 4.696 2.25 6.75l9.75 11.25 9.75-11.25c1.647-2.054 2.25-3.911 2.25-6.75a12 12 0 0 0-12-12Z" fill="#453CC9" stroke="#453CC9" stroke-width="2" stroke-linecap="round" stroke-linejoin="round"/><path d="M18.205 15.057c.736 0 1.354.434 1.529 1.02.22.735.19 1.541 1.154 1.96.856.253 1.18.571 1.18 1.425 0 .681-.67 1.405-1.534 1.496-.967.126-1.72-.039-2.33-.341-.609.302-1.361.467-2.327.34-.865-.09-1.535-.816-1.535-1.495 0-.835.346-1.19 1.2-1.431 1.053-.467.911-1.287 1.146-1.99a1.39 1.39 0 0 1 .57-.712c.274-.177.606-.273.947-.272Zm4.819-.508c-.26-.197-1.325.572-1.66.953-.203.203-.33.481-.33.79 0 .618.51 1.12 1.137 1.12.476 0 .884-.289 1.053-.698.328-.738.346-1.752-.2-2.165Zm-9.638 0c-.545.413-.528 1.427-.2 2.165.17.41.577.698 1.054.698.627 0 1.136-.502 1.136-1.12 0-.309-.127-.587-.33-.79-.335-.38-1.399-1.15-1.66-.953Zm6.22-4.041c2.648.39 2.462 4.269.342 3.956a1.333 1.333 0 0 1-1.135-1.153c-.07-.589-.228-2.954.793-2.803Zm-2.801 0c1.02-.15.863 2.214.793 2.802a1.333 1.333 0 0 1-1.135 1.154c-2.12.313-2.306-3.566.342-3.956Z" fill="#fff"/></svg>